<?xml version="1.0" standalone="no"?>
<!DOCTYPE svg PUBLIC "-//W3C//DTD SVG 20010904//EN"
 "http://www.w3.org/TR/2001/REC-SVG-20010904/DTD/svg10.dtd">
<svg version="1.0" xmlns="http://www.w3.org/2000/svg"
 width="1024.000000pt" height="1024.000000pt" viewBox="0 0 1024.000000 1024.000000"
 preserveAspectRatio="xMidYMid meet">

<g transform="translate(0.000000,1024.000000) scale(0.100000,-0.100000)"
fill="#000000" stroke="none">
<path d="M0 5120 l0 -5120 5120 0 5120 0 0 5120 0 5120 -5120 0 -5120 0 0
-5120z m2868 2258 l-3 -203 -88 -7 c-154 -11 -268 -88 -302 -202 -12 -40 -15
-144 -15 -590 -1 -536 -6 -659 -34 -766 -35 -134 -125 -283 -218 -361 -59 -50
-149 -109 -166 -109 -31 0 -17 -22 30 -46 82 -41 143 -90 203 -162 108 -130
157 -267 175 -484 5 -62 10 -319 10 -571 0 -499 6 -568 56 -654 43 -75 142
-123 287 -138 l67 -7 0 -189 c0 -161 -2 -191 -15 -195 -40 -16 -331 48 -430
95 -133 61 -260 192 -305 314 -66 175 -62 134 -70 817 -4 344 -10 636 -14 650
-29 97 -49 150 -54 150 -4 0 -18 19 -32 41 -68 111 -224 187 -387 189 l-33 0
0 179 0 179 88 4 c167 9 299 91 363 227 68 143 69 153 69 794 0 685 2 711 78
867 55 111 157 211 282 272 52 25 124 54 159 63 71 18 219 43 269 44 l32 1 -2
-202z m4706 176 c117 -23 264 -75 324 -114 117 -76 202 -182 240 -300 44 -139
45 -145 52 -805 8 -684 7 -677 60 -789 30 -62 138 -172 194 -195 50 -22 183
-51 232 -51 l34 0 0 -179 0 -179 -88 -4 c-76 -3 -98 -9 -171 -43 -132 -62
-199 -153 -241 -329 -18 -75 -20 -120 -20 -643 0 -597 -2 -634 -50 -771 -25
-71 -84 -167 -139 -225 -74 -79 -236 -171 -346 -196 -63 -15 -268 -40 -277
-34 -8 4 -9 327 -1 361 4 18 12 22 45 22 97 0 242 60 284 117 72 96 73 111 78
763 4 631 4 627 70 790 58 143 169 262 313 338 29 15 53 30 53 33 0 4 -14 12
-31 19 -42 18 -139 83 -166 111 -148 157 -179 216 -218 419 -14 72 -17 172
-20 650 -2 404 -6 581 -15 620 -36 158 -104 205 -347 235 l-53 7 0 192 c0 106
3 195 6 198 8 8 117 -2 198 -18z m-2254 -1283 l0 -690 -22 -23 c-13 -13 -52
-48 -88 -78 -36 -30 -88 -77 -115 -103 -57 -55 -193 -169 -215 -181 -8 -4 6
13 32 38 26 25 40 46 33 46 -8 0 -29 -16 -46 -35 l-32 -35 -22 20 c-12 11 -26
20 -31 20 -15 0 -45 40 -55 74 -12 42 -11 116 1 116 14 0 12 16 -5 33 -8 8
-12 17 -9 20 3 3 -2 22 -11 43 -14 34 -17 125 -22 732 l-5 692 306 0 306 0 0
-689z m2049 647 c-12 -24 -52 -81 -90 -128 -37 -47 -94 -120 -126 -162 -32
-42 -119 -155 -193 -250 -74 -94 -151 -193 -170 -219 -126 -166 -227 -300
-255 -334 -18 -22 -66 -85 -107 -141 -74 -102 -230 -308 -268 -354 -64 -78
-150 -190 -150 -196 0 -9 66 -99 117 -161 24 -28 43 -54 43 -58 0 -3 37 -55
83 -113 46 -59 109 -143 140 -187 31 -44 70 -96 87 -115 17 -19 43 -53 58 -75
31 -46 80 -111 102 -135 35 -39 107 -134 111 -147 2 -6 49 -68 103 -137 101
-128 169 -220 231 -313 20 -29 55 -77 79 -106 24 -30 56 -74 72 -98 16 -24 31
-46 34 -49 3 -3 21 -27 40 -55 19 -27 40 -56 47 -63 35 -36 22 -37 -399 -40
l-413 -2 -40 52 c-22 28 -71 92 -109 142 -81 107 -101 134 -155 203 -22 28
-56 77 -76 107 -20 31 -48 71 -64 89 -26 30 -132 170 -176 232 -30 44 -98 129
-106 135 -3 3 -21 30 -40 60 -18 30 -42 64 -52 75 -11 11 -37 44 -59 72 l-40
52 28 48 c15 27 42 77 61 113 19 35 40 71 47 80 7 8 37 60 66 115 28 55 56
104 61 109 5 6 9 17 9 25 -1 12 -7 9 -22 -9 -11 -14 -25 -24 -31 -22 -5 2 -7
-4 -4 -13 4 -9 1 -15 -9 -15 -8 0 -36 -21 -61 -47 -139 -147 -166 -172 -174
-167 -5 3 -8 2 -7 -3 5 -14 -51 -75 -62 -68 -5 3 -8 0 -5 -7 6 -17 -50 -78
-70 -78 -9 0 -14 -4 -11 -9 8 -12 -57 11 -66 24 -5 6 -12 5 -20 -3 -6 -6 -27
-12 -44 -12 -31 0 -33 3 -36 38 -2 30 -7 38 -25 40 -13 2 -23 6 -23 10 0 10
-56 72 -65 72 -18 0 -44 48 -45 81 0 27 -7 41 -25 55 -14 10 -23 25 -20 31 5
16 -40 47 -55 38 -5 -3 -10 1 -10 9 0 9 8 16 18 16 12 0 14 2 4 8 -9 7 -5 18
19 48 38 48 72 81 78 74 2 -3 7 5 12 18 5 12 6 22 3 22 -7 0 76 106 126 160
23 25 53 62 67 84 27 42 108 145 127 161 20 19 76 94 76 104 0 5 3 11 8 13 6
3 58 67 157 193 18 22 36 48 42 58 5 11 24 35 42 55 17 21 96 120 176 222 79
102 158 202 175 222 17 20 68 86 113 146 187 250 271 359 300 390 l31 32 403
0 403 0 -21 -42z m-2545 -1725 c-5 -5 -12 -12 -16 -18 -4 -6 -8 -2 -8 8 0 9 7
17 17 17 9 0 12 -3 7 -7z m6 -37 c0 -3 -4 -8 -10 -11 -5 -3 -10 -1 -10 4 0 6
5 11 10 11 6 0 10 -2 10 -4z m595 -619 c11 -11 9 -16 -9 -27 -19 -12 -20 -12
-7 3 12 15 11 17 -3 17 -9 0 -16 -4 -16 -10 0 -5 -5 -10 -10 -10 -6 0 -5 8 2
20 15 23 24 25 43 7z m-95 -56 c12 -8 9 -14 -13 -37 -15 -15 -25 -30 -21 -33
3 -3 12 3 20 13 7 11 17 17 20 13 4 -3 -1 -14 -11 -23 -13 -14 -16 -30 -13
-76 2 -32 1 -58 -4 -58 -4 0 -8 7 -8 16 0 8 -4 12 -10 9 -5 -3 -10 -1 -10 4 0
6 -7 11 -15 11 -19 0 -32 54 -27 112 4 44 6 47 35 51 18 2 34 4 37 5 3 1 12
-2 20 -7z m3734 -3098 c11 -26 41 -69 68 -97 26 -27 48 -50 48 -50 0 -1 -35
-2 -79 -4 -57 -2 -80 1 -83 10 -11 34 5 188 20 188 4 0 16 -21 26 -47z m-56
-253 l3 -94 -29 39 c-35 49 -85 88 -134 106 -21 7 -38 16 -38 21 0 13 63 25
130 24 l65 -1 3 -95z m250 84 c31 -9 28 -21 -8 -26 -24 -4 -30 -1 -30 14 0 20
4 21 38 12z m-204 -221 c-11 -46 -18 -46 -29 0 -6 23 -4 27 14 27 18 0 20 -4
15 -27z"/>
<path d="M4885 5270 c-3 -5 -1 -10 4 -10 6 0 11 5 11 10 0 6 -2 10 -4 10 -3 0
-8 -4 -11 -10z"/>
<path d="M5536 4674 c-5 -14 -4 -15 9 -4 17 14 19 20 6 20 -5 0 -12 -7 -15
-16z"/>
<path d="M5290 4459 c0 -5 5 -7 10 -4 6 3 10 8 10 11 0 2 -4 4 -10 4 -5 0 -10
-5 -10 -11z"/>
<path d="M5293 4360 c0 -25 2 -35 4 -22 2 12 2 32 0 45 -2 12 -4 2 -4 -23z"/>
</g>
</svg>
