<svg width="67" height="48" viewBox="0 0 67 48" fill="none" xmlns="http://www.w3.org/2000/svg">
<path d="M65.8978 18.0283C65.7173 17.885 64.0322 16.6127 60.4786 16.6127C59.5403 16.6168 58.604 16.6972 57.6787 16.8533C56.9909 12.1392 53.0935 9.84083 52.9187 9.73772L51.9645 9.18744L51.3369 10.0931C50.551 11.3096 49.9772 12.6507 49.6404 14.0593C49.0041 16.7502 49.3911 19.2778 50.758 21.4386C49.1073 22.3584 46.4594 22.5849 45.9235 22.6049H2.08332C0.938226 22.6065 0.00903638 23.5319 0.00279584 24.6769C-0.0483394 28.5175 0.602354 32.3352 1.92284 35.9421C3.43305 39.9026 5.67983 42.8199 8.60292 44.6053C11.8785 46.6113 17.2002 47.7576 23.2325 47.7576C25.9577 47.7661 28.6777 47.5195 31.357 47.0211C35.0814 46.3372 38.6652 45.0355 41.9602 43.1695C44.6752 41.5972 47.1187 39.5971 49.1963 37.246C52.6696 33.3141 54.7387 28.9352 56.2775 25.0436H56.8908C60.6936 25.0436 63.0321 23.5219 64.3217 22.2467C65.1787 21.4334 65.8477 20.4426 66.2819 19.3437L66.5541 18.5471L65.8978 18.0283Z" fill="#2496ED"/>
<path d="M6.14575 21.3211H12.0205C12.3039 21.3211 12.5335 21.0914 12.5335 20.8082V15.5752C12.535 15.2919 12.3067 15.061 12.0234 15.0594C12.0225 15.0594 12.0215 15.0594 12.0205 15.0594H6.14575C5.86241 15.0594 5.63281 15.2891 5.63281 15.5724V15.5752V20.8081C5.63281 21.0914 5.86241 21.3211 6.14575 21.3211V21.3211Z" fill="#2496ED"/>
<path d="M14.2425 21.3211H20.1173C20.4006 21.3211 20.6302 21.0914 20.6302 20.8082V15.5752C20.6318 15.2919 20.4034 15.061 20.1201 15.0594C20.1191 15.0594 20.1181 15.0594 20.1172 15.0594H14.2424C13.9575 15.0594 13.7266 15.2903 13.7266 15.5752V20.8081C13.7282 21.0919 13.9587 21.3211 14.2425 21.3211" fill="#2496ED"/>
<path d="M22.4622 21.3211H28.337C28.6204 21.3211 28.85 21.0914 28.85 20.8082V15.5752C28.8515 15.2919 28.6232 15.061 28.3398 15.0594C28.3389 15.0594 28.3379 15.0594 28.3369 15.0594H22.4622C22.1788 15.0594 21.9492 15.2891 21.9492 15.5724V15.5752V20.8081C21.9493 21.0914 22.179 21.3211 22.4622 21.3211V21.3211Z" fill="#2496ED"/>
<path d="M30.5832 21.3211H36.458C36.7418 21.3211 36.9723 21.092 36.9739 20.8082V15.5752C36.9739 15.2903 36.7429 15.0594 36.458 15.0594H30.5832C30.2999 15.0594 30.0703 15.2891 30.0703 15.5724V15.5752V20.8081C30.0703 21.0914 30.3 21.3211 30.5832 21.3211V21.3211Z" fill="#2496ED"/>
<path d="M14.2424 13.7928H20.1172C20.4009 13.7912 20.6301 13.5607 20.6301 13.277V8.04415C20.6301 7.76082 20.4004 7.53122 20.1172 7.53122H14.2424C13.9587 7.53122 13.7281 7.76035 13.7266 8.04415V13.277C13.7281 13.5613 13.9581 13.7912 14.2424 13.7928Z" fill="#2496ED"/>
<path d="M22.4622 13.7928H28.3369C28.6206 13.7912 28.8499 13.5607 28.8499 13.277V8.04415C28.8499 7.76082 28.6202 7.53122 28.3369 7.53122H22.4622C22.1788 7.53122 21.9492 7.76091 21.9492 8.04415V13.277C21.9492 13.5607 22.1784 13.7912 22.4622 13.7928Z" fill="#2496ED"/>
<path d="M30.5832 13.7928H36.458C36.7423 13.7912 36.9723 13.5613 36.9739 13.277V8.04415C36.9723 7.76035 36.7418 7.53122 36.458 7.53122H30.5832C30.2999 7.53122 30.0703 7.76091 30.0703 8.04415V13.277C30.0703 13.5607 30.2995 13.7912 30.5832 13.7928Z" fill="#2496ED"/>
<path d="M30.5832 6.26169H36.458C36.7418 6.26169 36.9723 6.03247 36.9739 5.74876V0.512936C36.9723 0.229131 36.7418 0 36.458 0H30.5832C30.2999 0 30.0703 0.229596 30.0703 0.512936V5.74866C30.0703 6.032 30.3 6.26169 30.5832 6.26169Z" fill="#2496ED"/>
<path d="M38.7766 21.3211H44.6514C44.9352 21.3211 45.1656 21.092 45.1672 20.8082V15.5752C45.1672 15.2903 44.9363 15.0594 44.6514 15.0594H38.7766C38.4934 15.0594 38.2637 15.2891 38.2637 15.5724V15.5752V20.8081C38.2637 21.0914 38.4934 21.3211 38.7766 21.3211" fill="#2496ED"/>
</svg>
