<svg width="33" height="49" viewBox="0 0 33 49" fill="none" xmlns="http://www.w3.org/2000/svg">
<path d="M8.16667 49C12.6747 49 16.3333 45.3414 16.3333 40.8334V32.6667H8.16667C3.65867 32.6667 0 36.3254 0 40.8334C0 45.3414 3.65867 49 8.16667 49Z" fill="#0ACF83"/>
<path d="M0 24.5C0 19.992 3.65867 16.3333 8.16667 16.3333H16.3333V32.6666H8.16667C3.65867 32.6666 0 29.008 0 24.5Z" fill="#A259FF"/>
<path d="M0 8.16666C0 3.65867 3.65867 0 8.16667 0H16.3333V16.3333H8.16667C3.65867 16.3333 0 12.6747 0 8.16666Z" fill="#F24E1E"/>
<path d="M16.334 0H24.5007C29.0087 0 32.6674 3.65867 32.6674 8.16666C32.6674 12.6747 29.0087 16.3333 24.5007 16.3333H16.334V0Z" fill="#FF7262"/>
<path d="M32.6674 24.5C32.6674 29.008 29.0087 32.6666 24.5007 32.6666C19.9927 32.6666 16.334 29.008 16.334 24.5C16.334 19.992 19.9927 16.3333 24.5007 16.3333C29.0087 16.3333 32.6674 19.992 32.6674 24.5Z" fill="#1ABCFE"/>
</svg>
