<svg width="35" height="47" viewBox="0 0 35 47" fill="none" xmlns="http://www.w3.org/2000/svg">
<path d="M22.5602 16.9762L17.8595 21.353L13.4961 12.5481L15.7502 7.48537C16.3199 6.4755 17.2517 6.46217 17.8214 7.48537L22.5602 16.9762Z" fill="#FFA000"/>
<path d="M17.8606 21.3511L0.277344 37.7053L13.4972 12.548L17.8606 21.3511Z" fill="#F57F17"/>
<path d="M27.7134 10.2826C28.5556 9.48039 29.4226 9.75096 29.6417 10.8904L34.2128 37.4843L19.0514 46.5865C18.5198 46.8838 17.1098 47 17.1098 47C17.1098 47 15.8275 46.8438 15.3359 46.5732L0.277344 37.7054L27.7134 10.2826Z" fill="#FFCA28"/>
<path d="M13.4971 12.5481L0.277344 37.7053L6.16889 0.9346C6.38992 -0.204839 7.03586 -0.32107 7.61892 0.688801L13.4971 12.5481Z" fill="#FFA000"/>
</svg>
