<svg width="44" height="44" viewBox="0 0 44 44" fill="none" xmlns="http://www.w3.org/2000/svg">
<path d="M43.1692 20.0391L23.9588 0.82975C22.8532 -0.276583 21.0588 -0.276583 19.9518 0.82975L15.9627 4.81887L21.0231 9.87927C22.199 9.4819 23.5475 9.74848 24.4849 10.6859C25.4268 11.6293 25.6914 12.9893 25.2845 14.169L30.1613 19.046C31.3412 18.6395 32.7026 18.9025 33.6449 19.8464C34.962 21.1629 34.962 23.2967 33.6449 24.6141C32.3275 25.9317 30.1938 25.9317 28.8757 24.6141C27.885 23.6224 27.6403 22.1675 28.1418 20.9471L23.5938 16.399L23.5932 28.3676C23.9229 28.5306 24.2241 28.746 24.4849 29.0052C25.802 30.3218 25.802 32.4557 24.4849 33.7741C23.1675 35.091 21.0327 35.091 19.7172 33.7741C18.4002 32.4557 18.4002 30.3219 19.7172 29.0054C20.0328 28.6896 20.4079 28.4396 20.8208 28.2696V16.1895C20.4073 16.0207 20.032 15.7705 19.7172 15.4537C18.7193 14.4572 18.4794 12.9931 18.9907 11.7678L14.0023 6.77889L0.830137 19.9502C-0.276712 21.0576 -0.276712 22.8521 0.830137 23.9586L20.0408 43.1683C21.1468 44.2748 22.9408 44.2748 24.0482 43.1683L43.169 24.0478C44.2755 22.9409 44.2757 21.1454 43.1692 20.0391Z" fill="#DE4C36"/>
</svg>
