<svg width="60" height="48" viewBox="0 0 60 48" fill="none" xmlns="http://www.w3.org/2000/svg">
<path d="M12.1012 16.858C9.48019 16.858 7.52833 18.1345 7.52833 21.2068C7.52833 23.5215 8.81475 25.1288 11.9598 25.1288C14.6258 25.1288 16.4367 23.5703 16.4367 21.1107C16.4367 18.3235 14.8164 16.858 12.1012 16.858ZM6.86101 38.5516C6.24052 39.3065 5.62237 40.1092 5.62237 41.0554C5.62237 42.9446 8.05095 43.5132 11.3871 43.5132C14.15 43.5132 17.9142 43.3209 17.9142 40.7725C17.9142 39.2577 16.1033 39.1643 13.8152 39.0222L6.86101 38.5516ZM20.9628 17.0006C21.8189 18.0876 22.7255 19.6005 22.7255 21.774C22.7255 27.0194 18.5806 30.0908 12.5789 30.0908C11.0527 30.0908 9.67126 29.9022 8.81474 29.6662L7.24173 32.17L11.9102 32.4534C20.1531 32.9746 25.0108 33.2115 25.0108 39.4941C25.0108 44.93 20.2004 48 11.9102 48C3.28744 48 0 45.826 0 42.0931C0 39.9666 0.952983 38.8345 2.62059 37.2723C1.04805 36.6132 0.524493 35.4324 0.524493 34.1554C0.524493 33.1149 1.04805 32.1705 1.9069 31.2716C2.76388 30.3751 3.7164 29.4763 4.85998 28.4367C2.52599 27.3023 0.762386 24.845 0.762386 21.3471C0.762386 15.9136 4.38372 12.1816 11.6713 12.1816C13.7206 12.1816 14.9597 12.3684 16.0555 12.654H25.3465V16.6694L20.9628 17.0006ZM33.7281 8.41296C31.012 8.41296 29.4399 6.85217 29.4399 4.15747C29.4399 1.4665 31.0115 0 33.7281 0C36.4911 0 38.0636 1.4665 38.0636 4.15747C38.0636 6.85217 36.4915 8.41296 33.7281 8.41296ZM27.5812 36.8124V33.0809L30.0117 32.7511C30.679 32.6559 30.7736 32.5147 30.7736 31.8044V17.9106C30.7736 17.3922 30.6313 17.0596 30.1531 16.9193L27.5812 16.0204L28.1048 12.1937H37.9676V31.8044C37.9676 32.5616 38.0135 32.6559 38.7305 32.7516L41.16 33.0814V36.8124H27.5812ZM60 34.9804C57.9507 35.9721 54.9494 36.8701 52.2328 36.8701C46.5636 36.8701 44.4207 34.6041 44.4207 29.2612V16.8812C44.4207 16.5978 44.4207 16.4088 44.0381 16.4088H40.7038V12.2016C44.8974 11.7278 46.5636 9.64859 47.0877 4.4975H51.6142V11.2098C51.6142 11.5397 51.6142 11.6823 51.9959 11.6823H58.7127V16.4078H51.6142V27.7018C51.6142 30.4898 52.282 31.5759 54.8534 31.5759C56.189 31.5759 57.5691 31.2461 58.7122 30.8206L60 34.9804Z" fill="#F04632"/>
</svg>
