<svg width="49" height="48" viewBox="0 0 49 48" fill="none" xmlns="http://www.w3.org/2000/svg">
<path d="M24.633 0C11.177 0 0.265625 10.9094 0.265625 24.3673C0.265625 35.1336 7.2476 44.2675 16.9296 47.4896C18.1473 47.7151 18.5945 46.961 18.5945 46.3173C18.5945 45.7364 18.5718 43.8167 18.5614 41.7806C11.7822 43.2546 10.3518 38.9056 10.3518 38.9056C9.24335 36.089 7.64625 35.3402 7.64625 35.3402C5.4355 33.8278 7.8129 33.8588 7.8129 33.8588C10.2599 34.0308 11.5483 36.3699 11.5483 36.3699C13.7216 40.0952 17.2487 39.0181 18.6392 38.3957C18.8578 36.8206 19.4895 35.7458 20.1862 35.1373C14.774 34.5209 9.08434 32.4316 9.08434 23.0947C9.08434 20.4345 10.0363 18.2606 11.5951 16.5542C11.3421 15.9404 10.5081 13.4621 11.8312 10.1056C11.8312 10.1056 13.8774 9.45071 18.5339 12.6034C20.4775 12.0634 22.5621 11.7928 24.633 11.7836C26.7038 11.7928 28.79 12.0634 30.7374 12.6034C35.3884 9.45071 37.4317 10.1056 37.4317 10.1056C38.758 13.4621 37.9236 15.9404 37.6706 16.5542C39.2329 18.2606 40.1783 20.4343 40.1783 23.0947C40.1783 32.4537 34.4779 34.5146 29.052 35.1178C29.9259 35.874 30.7047 37.357 30.7047 39.6302C30.7047 42.8906 30.6764 45.5147 30.6764 46.3173C30.6764 46.9658 31.115 47.7256 32.3503 47.4863C42.0269 44.2606 49.0001 35.13 49.0001 24.3673C49.0001 10.9094 38.0903 0 24.633 0Z" fill="#fff"/>
<path d="M9.39093 34.7119C9.33742 34.8329 9.14669 34.8692 8.97336 34.7862C8.79658 34.7067 8.6972 34.5416 8.75454 34.4201C8.80709 34.2955 8.99782 34.2607 9.17421 34.3444C9.35137 34.4237 9.45228 34.5903 9.39093 34.7119V34.7119ZM10.5896 35.7813C10.4734 35.8891 10.2461 35.839 10.0919 35.6688C9.93253 35.4989 9.90272 35.2718 10.0206 35.1623C10.1405 35.0547 10.3608 35.105 10.5206 35.2751C10.68 35.4469 10.7109 35.6726 10.5894 35.7815L10.5896 35.7813ZM11.4119 37.1497C11.2625 37.2534 11.0182 37.1562 10.8674 36.9394C10.7182 36.7229 10.7182 36.463 10.8707 36.3589C11.022 36.2547 11.2625 36.3483 11.4153 36.5633C11.5644 36.7837 11.5644 37.0436 11.4117 37.1499L11.4119 37.1497ZM12.8024 38.7345C12.6688 38.8817 12.3845 38.8423 12.1762 38.6413C11.9633 38.4448 11.9038 38.166 12.0378 38.0186C12.1729 37.8711 12.459 37.9126 12.6688 38.1119C12.8804 38.308 12.945 38.5889 12.8026 38.7345H12.8024ZM14.5996 39.2696C14.5409 39.4604 14.2669 39.5471 13.9909 39.4661C13.7153 39.3826 13.5349 39.159 13.5906 38.9662C13.6479 38.7741 13.9231 38.6837 14.2011 38.7705C14.4763 38.8536 14.6571 39.0755 14.5998 39.2696H14.5996ZM16.6452 39.4965C16.6521 39.6975 16.418 39.8642 16.1283 39.8678C15.8369 39.8741 15.6012 39.7115 15.5982 39.5139C15.5982 39.3109 15.8269 39.1458 16.1182 39.141C16.4079 39.1353 16.6452 39.2968 16.6452 39.4965V39.4965ZM18.6546 39.4195C18.6893 39.6155 18.4879 39.817 18.2003 39.8705C17.9175 39.9221 17.6556 39.8011 17.6195 39.6068C17.5844 39.4057 17.7896 39.2045 18.0719 39.1523C18.3601 39.1022 18.6179 39.2201 18.6546 39.4195" fill="#161614"/>
</svg>
