<svg width="53" height="49" viewBox="0 0 53 49" fill="none" xmlns="http://www.w3.org/2000/svg">
<path d="M26.1162 48.1175L35.7342 18.5166H16.498L26.116 48.1175H26.1162Z" fill="#E24329"/>
<path d="M26.1168 48.1173L16.4987 18.5164H3.01953L26.1168 48.1173Z" fill="#FC6D26"/>
<path d="M3.02019 18.5164L0.0974777 27.512C-0.0324751 27.9119 -0.032493 28.3427 0.0974265 28.7426C0.227346 29.1425 0.480533 29.491 0.820703 29.7382L26.1174 48.1174L3.01998 18.5166L3.02019 18.5164Z" fill="#FCA326"/>
<path d="M3.01953 18.5165H16.4987L10.7061 0.687979C10.408 -0.229428 9.11019 -0.229224 8.81228 0.687979L3.01953 18.5165Z" fill="#E24329"/>
<path d="M26.1174 48.1173L35.7354 18.5164H49.2147L26.1172 48.1173H26.1174Z" fill="#FC6D26"/>
<path d="M49.2144 18.5164L52.1371 27.512C52.2671 27.9119 52.2671 28.3427 52.1371 28.7426C52.0072 29.1426 51.7539 29.4911 51.4137 29.7382L26.1172 48.1174L49.2144 18.5166V18.5164Z" fill="#FCA326"/>
<path d="M49.2137 18.5165H35.7344L41.5271 0.687979C41.8252 -0.229428 43.123 -0.229224 43.421 0.687979L49.2137 18.5165Z" fill="#E24329"/>
</svg>
