<svg width="15" height="32" viewBox="0 0 15 32" fill="none" xmlns="http://www.w3.org/2000/svg">
<path d="M7.30898 0.529297L8.14384 2.08863C8.33154 2.37638 8.53487 2.63108 8.77438 2.86829C9.47657 3.55786 10.1311 4.29383 10.7335 5.07118C12.148 6.91826 13.1021 8.9695 13.7835 11.1879C14.1922 12.5431 14.4141 13.9333 14.4307 15.339C14.4991 19.5416 13.0503 23.1502 10.1293 26.1493C9.65418 26.6249 9.14088 27.0612 8.59451 27.454C8.30514 27.454 8.16828 27.2333 8.04901 27.0301C7.83182 26.6533 7.68727 26.2396 7.62279 25.81C7.52014 25.3016 7.45269 24.7932 7.48593 24.2682V24.031C7.46246 23.9805 7.20731 0.648871 7.30898 0.529297Z" fill="#599636"/>
<path d="M7.30906 0.477781C7.27485 0.40973 7.24063 0.461254 7.20642 0.494307C7.22304 0.83456 7.10377 1.13787 6.91705 1.42757C6.71176 1.71533 6.43999 1.93601 6.16725 2.17321C4.65199 3.47784 3.45934 5.05369 2.50424 6.8162C1.23339 9.18825 0.578406 11.7304 0.392665 14.4068C0.307616 15.3721 0.699626 18.7785 1.00561 19.7614C1.84047 22.3706 3.34008 24.557 5.28253 26.4546C5.75959 26.9115 6.26989 27.3354 6.79779 27.7427C6.95127 27.7427 6.96789 27.6066 7.00308 27.5055C7.07037 27.2892 7.12167 27.0682 7.15656 26.8444L7.49871 24.3032L7.30906 0.477781Z" fill="#6CAC48"/>
<path d="M8.14398 28.4862C8.1782 28.0973 8.3659 27.7745 8.57021 27.4528C8.36492 27.3682 8.21242 27.2 8.09315 27.0124C7.99031 26.8347 7.90518 26.6475 7.83898 26.4534C7.60045 25.7418 7.54961 24.9952 7.48118 24.268V23.8276C7.39613 23.8957 7.37854 24.4712 7.37854 24.5567C7.32879 25.3253 7.22623 26.0896 7.07157 26.8442C7.02074 27.1495 6.98653 27.4537 6.79785 27.725C6.79785 27.759 6.79785 27.793 6.81447 27.8436C7.12143 28.7418 7.2055 29.6566 7.25732 30.5889V30.9292C7.25732 31.3355 7.2407 31.25 7.57992 31.3861C7.71678 31.4366 7.86928 31.4541 8.00615 31.5552C8.10879 31.5552 8.12541 31.4706 8.12541 31.4026L8.07458 30.8436V29.2843C8.05796 29.0121 8.10879 28.7418 8.14301 28.4871L8.14398 28.4862Z" fill="#C2BFBF"/>
</svg>
