<svg width="47" height="47" viewBox="0 0 47 47" fill="none" xmlns="http://www.w3.org/2000/svg">
<g clip-path="url(#clip0_1450_12215)">
<path d="M21.9609 0.0126479C21.8598 0.0218352 21.5382 0.0539908 21.2488 0.076959C14.5732 0.678728 8.32033 4.28015 4.36002 9.81551C2.15474 12.8933 0.744282 16.3844 0.211339 20.0823C0.0229717 21.3731 0 21.7544 0 23.5046C0 25.2548 0.0229717 25.6361 0.211339 26.9269C1.48856 35.7513 7.76901 43.1654 16.2869 45.9125C17.8122 46.404 19.4202 46.7393 21.2488 46.9414C21.9609 47.0195 25.0391 47.0195 25.7512 46.9414C28.9075 46.5923 31.5814 45.8114 34.2186 44.4655C34.6229 44.2587 34.701 44.2036 34.6458 44.1577C34.6091 44.1301 32.8862 41.8195 30.8188 39.0266L27.0606 33.9506L22.3514 26.982C19.7602 23.1509 17.6284 20.018 17.6101 20.018C17.5917 20.0134 17.5733 23.1095 17.5641 26.8901C17.5503 33.5096 17.5457 33.776 17.4631 33.9322C17.3436 34.1573 17.2517 34.2492 17.0587 34.3502C16.9117 34.4237 16.7831 34.4375 16.0893 34.4375H15.2945L15.0832 34.3043C14.9454 34.217 14.8443 34.1022 14.7754 33.9689L14.6789 33.7622L14.6881 24.552L14.7019 15.3371L14.8443 15.1579C14.9178 15.0615 15.074 14.9374 15.1843 14.8777C15.3726 14.7858 15.4461 14.7767 16.241 14.7767C17.1782 14.7767 17.3344 14.8134 17.5779 15.0798C17.6468 15.1533 20.1967 18.9936 23.2473 23.6194C26.2979 28.2453 30.4696 34.5615 32.5187 37.6622L36.2401 43.2987L36.4284 43.1746C38.0962 42.0905 39.8604 40.5471 41.2571 38.9393C44.2296 35.5262 46.1455 31.3643 46.7887 26.9269C46.977 25.6361 47 25.2548 47 23.5046C47 21.7544 46.977 21.3731 46.7887 20.0823C45.5114 11.2579 39.231 3.84376 30.7131 1.09675C29.2108 0.609823 27.6119 0.274486 25.8201 0.0723654C25.3791 0.0264288 22.3422 -0.0241014 21.9609 0.0126479ZM31.5814 14.2254C31.802 14.3357 31.9811 14.547 32.0455 14.7675C32.0822 14.8869 32.0914 17.441 32.0822 23.1968L32.0684 31.4562L30.612 29.2237L29.151 26.9912V20.9873C29.151 17.1056 29.1694 14.9237 29.197 14.818C29.2705 14.5608 29.4313 14.3586 29.6518 14.2392C29.8402 14.1427 29.9091 14.1335 30.6304 14.1335C31.3104 14.1335 31.4298 14.1427 31.5814 14.2254Z" fill="white"/>
</g>
<defs>
<clipPath id="clip0_1450_12215">
<rect width="47" height="47" fill="white"/>
</clipPath>
</defs>
</svg>
