<svg width="30" height="32" viewBox="0 0 30 32" fill="none" xmlns="http://www.w3.org/2000/svg">
<path d="M13.726 0.776248C14.4974 0.334696 15.5022 0.332702 16.2729 0.776248C20.1505 2.96727 24.0293 5.15486 27.9062 7.34722C28.6354 7.75796 29.1231 8.56949 29.1157 9.40971V22.5918C29.1211 23.4668 28.5852 24.2977 27.8159 24.6991C23.951 26.8781 20.0882 29.0597 16.2241 31.2386C15.4367 31.6888 14.4118 31.6541 13.649 31.167C12.4903 30.4954 11.3296 29.827 10.1709 29.156C9.93408 29.0148 9.66715 28.9024 9.49995 28.6729C9.64776 28.4736 9.91203 28.4488 10.1268 28.3618C10.6104 28.208 11.0546 27.9612 11.499 27.7216C11.6113 27.6447 11.7485 27.6742 11.8562 27.743C12.847 28.3111 13.829 28.8957 14.8232 29.4583C15.0352 29.5808 15.25 29.4182 15.4313 29.3172C19.2238 27.1737 23.0211 25.0383 26.813 22.8941C26.9535 22.8265 27.0311 22.6774 27.0197 22.5235C27.0224 18.175 27.0204 13.8258 27.0211 9.4773C27.0371 9.30267 26.9361 9.14212 26.7782 9.07065C22.9268 6.90168 19.0773 4.72938 15.2266 2.55985C15.1599 2.51398 15.0808 2.48937 14.9999 2.48925C14.9189 2.48913 14.8398 2.51351 14.773 2.55918C10.9222 4.72938 7.07347 6.90367 3.22272 9.07254C3.06538 9.14411 2.95978 9.30201 2.97851 9.4773C2.97918 13.8258 2.97851 18.175 2.97851 22.5242C2.97183 22.5993 2.98833 22.6746 3.02577 22.74C3.06321 22.8055 3.1198 22.8579 3.18793 22.8902C4.21552 23.4729 5.24444 24.0515 6.27269 24.6322C6.85197 24.944 7.56322 25.1293 8.20145 24.8904C8.76466 24.6884 9.15945 24.1136 9.1487 23.5156C9.15402 19.1925 9.14604 14.8688 9.15269 10.5463C9.13862 10.3544 9.32067 10.1959 9.50726 10.2139C10.001 10.2106 10.4954 10.2073 10.9891 10.2152C11.1952 10.2106 11.3371 10.4172 11.3116 10.6106C11.3096 14.9611 11.3169 19.3116 11.3083 23.6621C11.3096 24.8216 10.8332 26.0832 9.76078 26.6505C8.43956 27.3349 6.80654 27.1898 5.50128 26.5335C4.37131 25.9695 3.29297 25.3039 2.18305 24.6997C1.41175 24.3005 0.878455 23.4662 0.883884 22.5919V9.40971C0.875796 8.55209 1.38294 7.72583 2.13485 7.32107C5.99901 5.14035 9.8625 2.95796 13.726 0.776248Z" fill="#8CC84B"/>
<path d="M17.097 9.90771C18.7823 9.79924 20.5865 9.84345 22.1031 10.6737C23.2773 11.3099 23.9283 12.6452 23.949 13.9497C23.9162 14.1257 23.7323 14.2227 23.5643 14.2106C23.0753 14.21 22.5862 14.2173 22.0972 14.2073C21.8898 14.2153 21.7693 14.0241 21.7432 13.8407C21.6027 13.2165 21.2623 12.5984 20.6749 12.2973C19.773 11.8458 18.7274 11.8685 17.744 11.8779C17.0261 11.916 16.2541 11.9782 15.6459 12.4003C15.179 12.7201 15.0372 13.3657 15.2038 13.8856C15.361 14.2588 15.7919 14.3793 16.1444 14.4903C18.1755 15.0215 20.3277 14.9687 22.32 15.6677C23.1448 15.9527 23.9516 16.5067 24.234 17.3703C24.6033 18.5278 24.4414 19.9113 23.6179 20.8405C22.9501 21.6051 21.9775 22.0213 21.0074 22.2473C19.7169 22.5351 18.3776 22.5424 17.067 22.4146C15.8346 22.2741 14.5522 21.9504 13.6008 21.1107C12.7873 20.4043 12.39 19.3037 12.4294 18.2415C12.4388 18.0621 12.6175 17.937 12.7893 17.9517C13.2817 17.9477 13.7741 17.9464 14.2666 17.9524C14.4632 17.9383 14.609 18.1083 14.6191 18.2936C14.71 18.8883 14.9335 19.5125 15.452 19.8651C16.4528 20.5107 17.7085 20.4665 18.8545 20.4846C19.8038 20.4424 20.8695 20.4297 21.6443 19.8022C22.053 19.4443 22.1741 18.8456 22.0637 18.3304C21.944 17.8955 21.489 17.6929 21.0983 17.5603C19.0934 16.9261 16.9171 17.1562 14.9315 16.439C14.1254 16.1541 13.3459 15.6155 13.0362 14.7874C12.6041 13.6153 12.8021 12.1656 13.7119 11.2677C14.599 10.3746 15.8795 10.0307 17.097 9.9076V9.90771Z" fill="#8CC84B"/>
</svg>
