<svg width="40" height="36" viewBox="0 0 40 36" fill="none" xmlns="http://www.w3.org/2000/svg">
<path d="M20.04 21.4438C21.9595 21.4438 23.5156 19.8878 23.5156 17.9682C23.5156 16.0487 21.9595 14.4927 20.04 14.4927C18.1205 14.4927 16.5645 16.0487 16.5645 17.9682C16.5645 19.8878 18.1205 21.4438 20.04 21.4438Z" fill="#00D8FF"/>
<path fill-rule="evenodd" clip-rule="evenodd" d="M20.0402 10.9019C24.7067 10.9019 29.0417 11.5714 32.3102 12.6967C36.2484 14.0525 38.6697 16.1076 38.6697 17.9684C38.6697 19.9076 36.1036 22.0908 31.8745 23.492C28.6772 24.5513 24.4699 25.1043 20.0402 25.1043C15.4987 25.1043 11.198 24.5852 7.96474 23.4803C3.87403 22.0821 1.41016 19.8706 1.41016 17.9684C1.41016 16.1227 3.72203 14.0835 7.60483 12.7297C10.8856 11.5859 15.3276 10.9019 20.0396 10.9019H20.0402Z" stroke="#00D8FF" stroke-width="1.66272"/>
<path fill-rule="evenodd" clip-rule="evenodd" d="M13.8884 14.4553C16.2197 10.4129 18.9653 6.99216 21.5729 4.72282C24.7148 1.98862 27.7047 0.917826 29.3167 1.84736C30.9966 2.8161 31.6058 6.12983 30.7069 10.4932C30.0279 13.7922 28.4044 17.713 26.1915 21.5503C23.9226 25.4846 21.3246 28.9508 18.7524 31.1991C15.4976 34.0443 12.351 35.0739 10.7031 34.1236C9.10414 33.2022 8.49268 30.1802 9.25975 26.1402C9.90786 22.7268 11.5343 18.5371 13.8877 14.4552L13.8884 14.4553Z" stroke="#00D8FF" stroke-width="1.66272"/>
<path fill-rule="evenodd" clip-rule="evenodd" d="M13.8943 21.5605C11.5564 17.5227 9.9647 13.4349 9.30031 10.0424C8.50054 5.95484 9.066 2.82962 10.6765 1.89739C12.3547 0.925807 15.5299 2.05285 18.8612 5.01083C21.38 7.24719 23.9663 10.6112 26.1857 14.4449C28.4611 18.3754 30.1665 22.3574 30.83 25.7086C31.6694 29.9494 30.99 33.1897 29.3437 34.1427C27.7463 35.0675 24.8232 34.0884 21.7063 31.4062C19.0727 29.14 16.2552 25.6384 13.8943 21.5604V21.5605Z" stroke="#00D8FF" stroke-width="1.66272"/>
</svg>
