<svg width="49" height="49" viewBox="0 0 49 49" fill="none" xmlns="http://www.w3.org/2000/svg">
<path d="M46.6091 48.4756H1.87739C0.846451 48.4756 0 47.6291 0 46.5982V1.87739C0 0.846451 0.846451 0 1.87739 0H46.6091C47.64 0 48.4865 0.846451 48.4865 1.87739V46.6091C48.4756 47.64 47.64 48.4756 46.6091 48.4756V48.4756Z" fill="#4D4D4E"/>
<path d="M11.1777 14.6393L36.5496 6.58713C36.5496 6.58713 38.351 5.64301 37.9169 7.39017L37.982 15.1493C37.982 15.1493 38.2967 16.2888 36.734 16.5709L26.4247 19.7939L11.1777 14.6393Z" fill="#F89820"/>
<path d="M11.1763 14.6393C11.1763 14.6393 10.178 14.878 10.471 16.5818L10.4167 24.0588C10.4167 24.0588 10.3299 25.0029 12.1204 25.3827L37.2644 33.4782C37.2644 33.4782 38.1108 33.8147 38.0132 32.7729L38.024 24.4386C38.024 24.4386 38.2628 23.5813 36.7001 23.017L26.4233 19.794L11.1763 14.6393Z" fill="#F89820"/>
<path d="M22.2562 28.6382L11.5562 31.9047C11.5562 31.9047 10.2648 31.9481 10.4167 34.3681C10.5687 36.788 10.4059 41.6606 10.4059 41.6606C10.4059 41.6606 10.5144 42.5613 11.7515 42.0404L37.1233 33.9448C37.1233 33.9448 38.0241 33.717 37.2644 33.4674C36.5048 33.2286 22.2562 28.6382 22.2562 28.6382V28.6382Z" fill="url(#paint0_linear_1814_22393)"/>
<defs>
<linearGradient id="paint0_linear_1814_22393" x1="11.8902" y1="37.2263" x2="37.5554" y2="28.3463" gradientUnits="userSpaceOnUse">
<stop offset="0.233" stop-color="#F89822"/>
<stop offset="1" stop-color="#C27818"/>
</linearGradient>
</defs>
</svg>
