<svg width="50" height="49" viewBox="0 0 50 49" fill="none" xmlns="http://www.w3.org/2000/svg">
<path d="M0.470565 17.0627C0.470565 17.0627 -0.734081 16.1943 0.711494 15.0349L4.07948 12.0232C4.07948 12.0232 5.0432 11.0093 6.06213 11.8927L37.142 35.4235V46.707C37.142 46.707 37.1269 48.4789 34.8532 48.2831L0.470565 17.0627Z" fill="#2489CA"/>
<path d="M8.48027 24.3358L0.469371 31.6189C0.469371 31.6189 -0.353804 32.2313 0.469371 33.3255L4.18872 36.7085C4.18872 36.7085 5.07213 37.6572 6.37716 36.578L14.8699 30.1382L8.48027 24.3358Z" fill="#1070B3"/>
<path d="M22.5457 24.396L37.2374 13.1777L37.142 1.95437C37.142 1.95437 36.5146 -0.495081 34.4215 0.77984L14.8711 18.5735L22.5457 24.396Z" fill="#0877B9"/>
<path d="M34.8535 48.2983C35.7068 49.1716 36.7408 48.8855 36.7408 48.8855L48.19 43.2438C49.6556 42.2449 49.4498 41.0051 49.4498 41.0051V7.31515C49.4498 5.83443 47.934 5.32246 47.934 5.32246L38.0107 0.539001C35.8424 -0.80117 34.4219 0.77993 34.4219 0.77993C34.4219 0.77993 36.2489 -0.535144 37.1424 1.95446V46.5013C37.1424 46.8075 37.0771 47.1087 36.9466 47.3797C36.6856 47.9068 36.1184 48.3987 34.7582 48.1929L34.8535 48.2983Z" fill="#3C99D4"/>
</svg>
